# xmcd
#
# Track frame offsets:
#	150
#	16919
#	25285
#	40491
#	63839
#	86641
#	106733
#	128929
#	152238
#	170255
#	185635
#	205680
#	221472
#	235142
#	246531
#	259388
#	265819
#	272765
#	280234
#	292940
#	309619
#	324570
#
# Disc length: 4444 seconds
#
# Revision: 2
# Processed by: cddbd v1.4PL0 Copyright (c) Steve Scherf et al.
# Submitted via: EasyCDDAExtractor 5.1.0
#
DISCID=44115a16
DTITLE=M.O.S. - Addicted To Bass CD1
DYEAR=1900
DGENRE=Blues
TTITLE0=Addicted To Bass
TTITLE1=This Style
TTITLE2=Super Sharp Shooter
TTITLE3=C Bodyrock
TTITLE4=Next Level
TTITLE5=So Lonely
TTITLE6=Brown Paper Bag
TTITLE7=Pulp Fiction
TTITLE8=Valley Of The Shadows
TTITLE9=Renegade Snares
TTITLE10=Urban Style Music
TTITLE11=Stealth
TTITLE12=Lazy Bones
TTITLE13=Camels
TTITLE14=Wideboys Ft. Hustler
TTITLE15=Dinamite
TTITLE16=Ug Collective Ft. Mic Tribute
TTITLE17=Distant Soundz Bass Soundz
TTITLE18=Santos Gimme Da Mike
TTITLE19=Versatile Ft. Cum Cakes
TTITLE20=Whoomp There It Is
TTITLE21=We Come Again
EXTD=
EXTT0=
EXTT1=
EXTT2=
EXTT3=
EXTT4=
EXTT5=
EXTT6=
EXTT7=
EXTT8=
EXTT9=
EXTT10=
EXTT11=
EXTT12=
EXTT13=
EXTT14=
EXTT15=
EXTT16=
EXTT17=
EXTT18=
EXTT19=
EXTT20=
EXTT21=
PLAYORDER=
